<svg xmlns="http://www.w3.org/2000/svg" version="1.1" xmlns:xlink="http://www.w3.org/1999/xlink" xmlns:svgjs="http://svgjs.dev/svgjs" width="2000" height="2250" viewBox="0 0 2000 2250"><g transform="matrix(1,0,0,1,0,0)"><svg viewBox="0 0 320 360" data-background-color="#14293a" preserveAspectRatio="xMidYMid meet" height="2250" width="2000" xmlns="http://www.w3.org/2000/svg" xmlns:xlink="http://www.w3.org/1999/xlink"><g id="tight-bounds" transform="matrix(1,0,0,1,0,0)"><svg viewBox="0 0 320 360" height="360" width="320"><g><svg></svg></g><g><svg viewBox="0 0 320 360" height="360" width="320"><g><path d="M160 42.18c72.417 0 131.943 56.114 137.63 127.014h22.37c-1.137-17.82-5.308-34.882-12.133-51.185-7.962-18.957-19.716-36.398-34.502-50.805-14.787-14.787-31.848-26.161-50.806-34.503-20.095-8.341-40.948-12.891-62.559-12.891-21.611 0-42.464 4.171-62.559 12.512-18.957 7.962-36.398 19.716-50.806 34.503-14.787 14.787-26.161 31.848-34.502 50.805-6.825 16.303-10.995 33.744-12.133 51.185h22.37c5.687-70.521 65.213-126.635 137.63-126.635zM160 318.199c-72.417 0-131.943-56.114-137.63-127.014h-22.37c1.137 17.82 5.308 34.882 12.133 51.185 7.962 18.957 19.716 36.398 34.502 50.805 14.787 14.787 31.848 26.161 50.806 34.503 19.716 8.341 40.569 12.512 62.559 12.512 21.991 0 42.464-4.171 62.559-12.512 18.957-7.962 36.398-19.716 50.806-34.503 14.787-14.787 26.161-31.848 34.502-50.805 6.825-16.303 10.995-33.744 12.133-51.185h-22.37c-5.687 70.9-65.213 127.014-137.63 127.014z" fill="#ffffff" fill-rule="nonzero" stroke="none" stroke-width="1" stroke-linecap="butt" stroke-linejoin="miter" stroke-miterlimit="10" stroke-dasharray="" stroke-dashoffset="0" font-family="none" font-weight="none" font-size="none" text-anchor="none" style="mix-blend-mode: normal" data-fill-palette-color="tertiary"></path></g><g transform="matrix(1,0,0,1,64.39169139465875,90)"><svg viewBox="0 0 191.2166172106825 180" height="180" width="191.2166172106825"><g><svg viewBox="0 0 191.2166172106825 180" height="180" width="191.2166172106825"><g><svg viewBox="0 0 191.2166172106825 180" height="180" width="191.2166172106825"><g id="textblocktransform"><svg viewBox="0 0 191.2166172106825 180" height="180" width="191.2166172106825" id="textblock"><g><svg viewBox="0 0 191.2166172106825 180" height="180" width="191.2166172106825"><g transform="matrix(1,0,0,1,0,0)"><svg width="191.2166172106825" viewBox="-1 -33.7 35.8 33.7" height="180" data-palette-color="#e9e4de"><g class="wordmark-text-0" data-fill-palette-color="primary" id="text-0"><path d="M31.15-2.75L34.8-2.35 34.75 0 21.35 0 21.05-1.6Q22.65-2.35 25.95-3.35L25.95-3.35 23.3-10.05 9.8-10.05 7-2.95 12.25-2.35 12.2 0-0.7 0-1-1.6Q0.25-2.2 3.15-3.1L3.15-3.1 14.85-31.45 14.5-32.35 18.45-33.7 31.15-2.75ZM11-13.1L22.1-13.1 16.5-27.2 11-13.1Z" fill="#ffffff" data-fill-palette-color="primary"></path></g></svg></g></svg></g></svg></g></svg></g></svg></g></svg></g></svg></g><defs></defs></svg><rect width="320" height="360" fill="none" stroke="none" visibility="hidden"></rect></g></svg></g></svg>