<svg xmlns="http://www.w3.org/2000/svg" version="1.1" xmlns:xlink="http://www.w3.org/1999/xlink" xmlns:svgjs="http://svgjs.dev/svgjs" width="2000" height="2250" viewBox="0 0 2000 2250"><g transform="matrix(1,0,0,1,0,0)"><svg viewBox="0 0 320 360" data-background-color="#14293a" preserveAspectRatio="xMidYMid meet" height="2250" width="2000" xmlns="http://www.w3.org/2000/svg" xmlns:xlink="http://www.w3.org/1999/xlink"><g id="tight-bounds" transform="matrix(1,0,0,1,0,0)"><svg viewBox="0 0 320 360" height="360" width="320"><g><svg></svg></g><g><svg viewBox="0 0 320 360" height="360" width="320"><g><path d="M160 42.18c72.417 0 131.943 56.114 137.63 127.014h22.37c-1.137-17.82-5.308-34.882-12.133-51.185-7.962-18.957-19.716-36.398-34.502-50.805-14.787-14.787-31.848-26.161-50.806-34.503-20.095-8.341-40.948-12.891-62.559-12.891-21.611 0-42.464 4.171-62.559 12.512-18.957 7.962-36.398 19.716-50.806 34.503-14.787 14.787-26.161 31.848-34.502 50.805-6.825 16.303-10.995 33.744-12.133 51.185h22.37c5.687-70.521 65.213-126.635 137.63-126.635zM160 318.199c-72.417 0-131.943-56.114-137.63-127.014h-22.37c1.137 17.82 5.308 34.882 12.133 51.185 7.962 18.957 19.716 36.398 34.502 50.805 14.787 14.787 31.848 26.161 50.806 34.503 19.716 8.341 40.569 12.512 62.559 12.512 21.991 0 42.464-4.171 62.559-12.512 18.957-7.962 36.398-19.716 50.806-34.503 14.787-14.787 26.161-31.848 34.502-50.805 6.825-16.303 10.995-33.744 12.133-51.185h-22.37c-5.687 70.9-65.213 127.014-137.63 127.014z" fill="#ffffff" fill-rule="nonzero" stroke="none" stroke-width="1" stroke-linecap="butt" stroke-linejoin="miter" stroke-miterlimit="10" stroke-dasharray="" stroke-dashoffset="0" font-family="none" font-weight="none" font-size="none" text-anchor="none" style="mix-blend-mode: normal" data-fill-palette-color="tertiary"></path></g><g transform="matrix(1,0,0,1,56.000000000000014,139.193893129771)"><svg viewBox="0 0 207.99999999999997 81.61221374045802" height="81.61221374045802" width="207.99999999999997"><g><svg viewBox="0 0 207.99999999999997 81.61221374045802" height="81.61221374045802" width="207.99999999999997"><g><svg viewBox="0 0 207.99999999999997 81.61221374045802" height="81.61221374045802" width="207.99999999999997"><g id="textblocktransform"><svg viewBox="0 0 207.99999999999997 81.61221374045802" height="81.61221374045802" width="207.99999999999997" id="textblock"><g><svg viewBox="0 0 207.99999999999997 81.61221374045802" height="81.61221374045802" width="207.99999999999997"><g transform="matrix(1,0,0,1,0,0)"><svg width="207.99999999999997" viewBox="-1 -37.55 99.74 38.55" height="81.61221374045802" data-palette-color="#e9e4de"><g class="wordmark-text-0" data-fill-palette-color="primary" id="text-0"><path d="M31.15-2.75L34.8-2.35 34.75 0 21.35 0 21.05-1.6Q22.65-2.35 25.95-3.35L25.95-3.35 23.3-10.05 9.8-10.05 7-2.95 12.25-2.35 12.2 0-0.7 0-1-1.6Q0.25-2.2 3.15-3.1L3.15-3.1 14.85-31.45 14.5-32.35 18.45-33.7 31.15-2.75ZM11-13.1L22.1-13.1 16.5-27.2 11-13.1ZM55.35-23.15L55.35-23.15Q55.55-19.45 54.45-15.05L54.45-15.05 51.75-15.05 51.2-20.55Q47.15-18.3 44.35-14.6L44.35-14.6 44.35-3.3Q48-3.05 49.5-2.4L49.5-2.4 49.2 0 36.5 0 36.25-1.65 39.9-3 39.9-20.6 36.15-20.3 35.55-22.65Q38.9-24.1 42.35-24.2L42.35-24.2 44.35-22.45 44.35-17.9 49.6-23.5Q51.05-24.1 52.25-24.1L52.25-24.1Q53.85-24.1 55.35-23.15ZM57.15-11.8Q57.15-17.4 60.32-20.9 63.5-24.4 68.45-24.4L68.45-24.4Q73.35-24.4 76.4-20.8 79.45-17.2 79.45-11.5L79.45-11.5Q79.45-5.85 76.45-2.43 73.45 1 68.55 1L68.55 1Q63.6 1 60.37-2.6 57.15-6.2 57.15-11.8ZM71.5-2.6L71.5-2.6Q74.75-4.75 74.75-10.95L74.75-10.95Q74.75-15.4 73.1-18.35 71.45-21.3 68.05-21.3L68.05-21.3Q65.8-21.3 64.25-20.2L64.25-20.2Q61.9-17.4 61.9-12.35L61.9-12.35Q61.9-8.05 63.72-5.15 65.55-2.25 69.1-2.25L69.1-2.25Q70.25-2.25 71.5-2.6ZM98.74-35.1L95.94-31.1Q93.39-33.55 90.54-33.55L90.54-33.55Q89.49-33.55 88.39-33.15L88.39-33.15 89.54-23.4 94.79-23.4 94.94-22 92.59-19.55 89.29-19.55 89.29-3.3Q92.44-3 93.84-2.4L93.84-2.4 93.54 0 81.69 0 81.44-1.65 84.84-2.9 84.84-19.65 81.74-19.55 81.44-22Q82.74-22.6 84.84-23.1L84.84-23.1 84.84-28.15Q84.84-32.25 87.24-34.9 89.64-37.55 93.09-37.55L93.09-37.55Q96.39-37.55 98.74-35.1L98.74-35.1Z" fill="#ffffff" data-fill-palette-color="primary"></path></g></svg></g></svg></g></svg></g></svg></g></svg></g></svg></g></svg></g><defs></defs></svg><rect width="320" height="360" fill="none" stroke="none" visibility="hidden"></rect></g></svg></g></svg>